<svg xmlns="http://www.w3.org/2000/svg" viewBox="0 0 477.88 164.08"><defs><style>.cls-1{fill:#253267;}.cls-2{fill:#17243e;}</style></defs><g id="Camada_2" data-name="Camada 2"><g id="Camada_1-2" data-name="Camada 1"><polygon class="cls-1" points="107.1 0 107.1 45.02 40.79 82.04 0.48 104.55 0 104.28 0 59.8 0.48 59.53 107.1 0"/><polygon class="cls-2" points="107.1 119.06 107.1 164.08 0.48 104.55 40.79 82.04 107.1 119.06"/><polygon class="cls-1" points="370.79 164.08 370.79 119.06 437.09 82.04 477.4 59.53 477.88 59.8 477.88 104.28 477.4 104.55 370.79 164.08"/><polygon class="cls-2" points="370.79 45.02 370.79 0 477.4 59.53 437.09 82.04 370.79 45.02"/><path class="cls-1" d="M260.85,131H322L278.93,51l-37.29,69.27c-11.61,25.13-34.33,42.2-60.46,42.2-37.94,0-68.7-36-68.7-80.41s30.76-80.41,68.7-80.41a61.22,61.22,0,0,1,36.3,12.13,15.76,15.76,0,0,1,1.83,23.87h0a15.7,15.7,0,0,1-20,1.91,33,33,0,0,0-18.8-6c-21.55,0-39,21.82-39,48.74s17.46,48.74,39,48.74c13.28,0,25-8.3,32.06-21,.21-.38.42-.76.62-1.15l31.27-58.1,22.76-42.3a13.25,13.25,0,0,1,23.33,0l71.25,132.37a14.07,14.07,0,0,1-12.39,20.74h-88.6a15.33,15.33,0,0,1-15.34-15.33h0A15.34,15.34,0,0,1,260.85,131Z"/></g></g></svg>